<svg width="512" height="512" viewBox="0 0 512 512" fill="none" xmlns="http://www.w3.org/2000/svg">
<g clip-path="url(#clip0_36_88)">
<path d="M75.1406 75.8555H66.0098V95.2988C66.0098 96.1224 65.9382 97.0355 65.7949 98.0381C65.6517 99.0407 65.2936 99.9896 64.7207 100.885C64.1478 101.744 63.2705 102.478 62.0889 103.087C60.9072 103.696 59.278 104 57.2012 104H34.2129C32.4941 104 31.0977 103.839 30.0234 103.517C28.9492 103.194 28.1077 102.729 27.499 102.12C26.8903 101.511 26.4785 100.742 26.2637 99.8105C26.0488 98.8796 25.9414 97.7874 25.9414 96.5342V34.3906C25.9414 33.1374 26.0488 32.0452 26.2637 31.1143C26.4785 30.1833 26.8903 29.4134 27.499 28.8047C28.1077 28.1602 28.9492 27.6768 30.0234 27.3545C31.0977 27.0322 32.4941 26.8711 34.2129 26.8711H58.168C60.2448 26.8711 61.8203 27.1755 62.8945 27.7842C64.0046 28.3929 64.7744 29.1628 65.2041 30.0938C65.6696 30.9889 65.9202 31.9557 65.9561 32.9941C65.9919 33.9967 66.0098 34.9277 66.0098 35.7871V68.1211H75.1406V29.3955C75.1406 28.7868 75.3018 28.2139 75.624 27.6768C75.9463 27.1396 76.5729 26.8711 77.5039 26.8711H83.0898C83.4121 26.8711 83.7165 26.889 84.0029 26.9248C84.3252 26.9606 84.5938 27.068 84.8086 27.2471C85.0592 27.3903 85.2383 27.641 85.3457 27.999C85.4889 28.3213 85.5605 28.7868 85.5605 29.3955V68.1211H90.7168C91.4688 68.1211 91.8447 68.4971 91.8447 69.249V74.6738C91.8447 75.4616 91.4688 75.8555 90.7168 75.8555H85.5605V101.476C85.5605 102.084 85.4889 102.568 85.3457 102.926C85.2383 103.248 85.0592 103.499 84.8086 103.678C84.5938 103.821 84.3252 103.91 84.0029 103.946C83.7165 103.982 83.4121 104 83.0898 104H77.3428C76.4118 104 75.8031 103.731 75.5166 103.194C75.266 102.657 75.1406 102.084 75.1406 101.476V75.8555ZM130.248 26.8711C130.893 26.8711 131.448 26.9606 131.913 27.1396C132.379 27.2829 132.79 27.5514 133.148 27.9453C133.542 28.3392 133.9 28.8584 134.223 29.5029C134.545 30.1475 134.885 30.9352 135.243 31.8662L159.896 97.7158C160.076 98.2171 160.201 98.6647 160.272 99.0586C160.344 99.4525 160.38 99.8464 160.38 100.24C160.38 101.529 159.986 102.478 159.198 103.087C158.446 103.696 157.641 104 156.781 104H126.327C125.396 104 124.608 103.893 123.964 103.678C123.355 103.427 122.836 103.141 122.406 102.818C121.977 102.496 121.636 102.156 121.386 101.798C121.171 101.44 121.028 101.118 120.956 100.831L120.365 98.9512H105.272L104.896 100.562C104.789 101.1 104.664 101.583 104.521 102.013C104.377 102.407 104.198 102.765 103.983 103.087C103.769 103.373 103.464 103.606 103.07 103.785C102.712 103.928 102.229 104 101.62 104H96.0879C94.9421 104 94.3691 103.552 94.3691 102.657C94.3691 102.335 94.4229 101.959 94.5303 101.529C94.6735 101.064 94.8525 100.527 95.0674 99.918L117.519 31.9736C118.056 30.2907 118.664 29.0374 119.345 28.2139C120.025 27.3903 120.992 26.9427 122.245 26.8711H130.248ZM106.938 92.3447H118.539L112.577 71.3438L106.938 92.3447ZM165.912 34.3906C165.912 33.1374 166.02 32.0452 166.234 31.1143C166.449 30.1833 166.861 29.4134 167.47 28.8047C168.078 28.1602 168.92 27.6768 169.994 27.3545C171.068 27.0322 172.465 26.8711 174.184 26.8711H200.019C202.704 26.8711 205.372 27.068 208.021 27.4619C210.671 27.82 213.196 28.4824 215.595 29.4492C217.994 30.416 220.214 31.7588 222.255 33.4775C224.332 35.1605 226.122 37.3447 227.626 40.0303C229.13 42.7158 230.312 45.9385 231.171 49.6982C232.03 53.458 232.46 57.8802 232.46 62.9648C232.46 68.9447 231.994 74.1188 231.063 78.4873C230.168 82.82 228.933 86.5081 227.357 89.5518C225.818 92.5954 223.974 95.0661 221.825 96.9639C219.713 98.8258 217.421 100.294 214.95 101.368C212.515 102.407 209.973 103.105 207.323 103.463C204.709 103.821 202.095 104 199.481 104H174.184C172.465 104 171.068 103.839 169.994 103.517C168.92 103.194 168.078 102.729 167.47 102.12C166.861 101.511 166.449 100.742 166.234 99.8105C166.02 98.8796 165.912 97.7874 165.912 96.5342V34.3906ZM224.887 64.0928C224.887 59.6527 224.529 55.6064 223.812 51.9541C223.096 48.3018 221.968 45.1865 220.429 42.6084C218.889 40.0303 216.92 38.0251 214.521 36.5928C212.157 35.1605 209.311 34.4264 205.98 34.3906V96.5342C209.311 96.4984 212.175 95.639 214.574 93.9561C216.973 92.2373 218.925 89.9098 220.429 86.9736C221.968 84.0374 223.096 80.6178 223.812 76.7148C224.529 72.776 224.887 68.5687 224.887 64.0928ZM240.785 34.3906C240.785 33.1374 240.893 32.0452 241.107 31.1143C241.322 30.1833 241.734 29.4134 242.343 28.8047C242.951 28.1602 243.793 27.6768 244.867 27.3545C245.941 27.0322 247.338 26.8711 249.057 26.8711H273.012C275.089 26.8711 276.664 27.1755 277.738 27.7842C278.848 28.3929 279.618 29.1628 280.048 30.0938C280.513 30.9889 280.764 31.9557 280.8 32.9941C280.836 33.9967 280.854 34.9277 280.854 35.7871V95.2988C280.854 96.1224 280.782 97.0355 280.639 98.0381C280.495 99.0407 280.137 99.9896 279.564 100.885C278.992 101.744 278.114 102.478 276.933 103.087C275.751 103.696 274.122 104 272.045 104H249.057C247.338 104 245.941 103.839 244.867 103.517C243.793 103.194 242.951 102.729 242.343 102.12C241.734 101.511 241.322 100.742 241.107 99.8105C240.893 98.8796 240.785 97.7874 240.785 96.5342V34.3906ZM25.9414 180.391C25.9414 179.137 26.0488 178.045 26.2637 177.114C26.4785 176.183 26.8903 175.413 27.499 174.805C28.1077 174.16 28.9492 173.677 30.0234 173.354C31.0977 173.032 32.4941 172.871 34.2129 172.871H58.168C60.0299 172.871 61.4801 173.122 62.5186 173.623C63.557 174.089 64.3268 174.697 64.8281 175.449C65.3652 176.201 65.6875 177.043 65.7949 177.974C65.9382 178.869 66.0098 179.728 66.0098 180.552V186.89L79.4375 173.838C79.9388 173.337 80.3864 172.961 80.7803 172.71C81.1742 172.424 81.568 172.28 81.9619 172.28C82.32 172.28 82.6243 172.37 82.875 172.549C83.1615 172.728 83.4658 172.979 83.7881 173.301L86.7959 176.47C87.0465 176.756 87.2435 177.025 87.3867 177.275C87.5299 177.49 87.6016 177.741 87.6016 178.027C87.6016 178.743 87.1719 179.442 86.3125 180.122L69.877 192.959C74.9616 193.424 78.6676 194.893 80.9951 197.363C83.3226 199.834 84.4863 203.379 84.4863 207.998V247.476C84.4863 248.084 84.3968 248.568 84.2178 248.926C84.0745 249.248 83.8776 249.499 83.627 249.678C83.4121 249.821 83.1436 249.91 82.8213 249.946C82.499 249.982 82.1768 250 81.8545 250H77.3428C76.4118 250 75.8031 249.731 75.5166 249.194C75.266 248.657 75.1406 248.084 75.1406 247.476V207.407C75.1406 205.76 74.9795 204.399 74.6572 203.325C74.3708 202.251 73.8695 201.392 73.1533 200.747C72.4372 200.067 71.4883 199.583 70.3066 199.297C69.1608 198.975 67.7285 198.778 66.0098 198.706V241.299C66.0098 242.122 65.9382 243.035 65.7949 244.038C65.6517 245.041 65.2936 245.99 64.7207 246.885C64.1478 247.744 63.2705 248.478 62.0889 249.087C60.9072 249.696 59.278 250 57.2012 250H34.2129C32.4941 250 31.0977 249.839 30.0234 249.517C28.9492 249.194 28.1077 248.729 27.499 248.12C26.8903 247.511 26.4785 246.742 26.2637 245.811C26.0488 244.88 25.9414 243.787 25.9414 242.534V180.391ZM125.307 172.871C125.951 172.871 126.506 172.961 126.972 173.14C127.437 173.283 127.849 173.551 128.207 173.945C128.601 174.339 128.959 174.858 129.281 175.503C129.604 176.147 129.944 176.935 130.302 177.866L154.955 243.716C155.134 244.217 155.259 244.665 155.331 245.059C155.403 245.452 155.438 245.846 155.438 246.24C155.438 247.529 155.045 248.478 154.257 249.087C153.505 249.696 152.699 250 151.84 250H121.386C120.455 250 119.667 249.893 119.022 249.678C118.414 249.427 117.895 249.141 117.465 248.818C117.035 248.496 116.695 248.156 116.444 247.798C116.229 247.44 116.086 247.118 116.015 246.831L115.424 244.951H100.331L99.9551 246.562C99.8477 247.1 99.7223 247.583 99.5791 248.013C99.4359 248.407 99.2568 248.765 99.042 249.087C98.8271 249.373 98.5228 249.606 98.1289 249.785C97.7708 249.928 97.2874 250 96.6787 250H91.1465C90.0007 250 89.4277 249.552 89.4277 248.657C89.4277 248.335 89.4814 247.959 89.5889 247.529C89.7321 247.064 89.9111 246.527 90.126 245.918L112.577 177.974C113.114 176.291 113.723 175.037 114.403 174.214C115.084 173.39 116.05 172.943 117.304 172.871H125.307ZM101.996 238.345H113.598L107.636 217.344L101.996 238.345ZM160.971 180.391C160.971 179.137 161.078 178.045 161.293 177.114C161.508 176.183 161.92 175.413 162.528 174.805C163.137 174.16 163.979 173.677 165.053 173.354C166.127 173.032 167.523 172.871 169.242 172.871H193.197C195.274 172.871 196.85 173.175 197.924 173.784C199.034 174.393 199.804 175.163 200.233 176.094C200.699 176.989 200.95 177.956 200.985 178.994C201.021 179.997 201.039 180.928 201.039 181.787V242.642C203.51 242.284 205.801 241.961 207.914 241.675C208.809 241.567 209.704 241.46 210.6 241.353C211.531 241.209 212.372 241.084 213.124 240.977C213.912 240.869 214.61 240.798 215.219 240.762C215.827 240.69 216.275 240.654 216.562 240.654C217.17 240.654 217.654 240.78 218.012 241.03C218.406 241.245 218.603 241.711 218.603 242.427V247.368C218.603 248.013 218.316 248.621 217.743 249.194C217.206 249.731 216.329 250 215.111 250H169.135C167.452 250 166.073 249.839 164.999 249.517C163.961 249.194 163.137 248.729 162.528 248.12C161.92 247.511 161.508 246.742 161.293 245.811C161.078 244.88 160.971 243.787 160.971 242.534V180.391ZM224.672 180.391C224.672 179.137 224.779 178.045 224.994 177.114C225.209 176.183 225.621 175.413 226.229 174.805C226.838 174.16 227.68 173.677 228.754 173.354C229.828 173.032 231.225 172.871 232.943 172.871H256.898C258.76 172.871 260.211 173.122 261.249 173.623C262.287 174.089 263.057 174.697 263.559 175.449C264.096 176.201 264.418 177.043 264.525 177.974C264.669 178.869 264.74 179.728 264.74 180.552V186.89L278.168 173.838C278.669 173.337 279.117 172.961 279.511 172.71C279.905 172.424 280.299 172.28 280.692 172.28C281.05 172.28 281.355 172.37 281.605 172.549C281.892 172.728 282.196 172.979 282.519 173.301L285.526 176.47C285.777 176.756 285.974 177.025 286.117 177.275C286.26 177.49 286.332 177.741 286.332 178.027C286.332 178.743 285.902 179.442 285.043 180.122L268.607 192.959C273.692 193.424 277.398 194.893 279.726 197.363C282.053 199.834 283.217 203.379 283.217 207.998V247.476C283.217 248.084 283.127 248.568 282.948 248.926C282.805 249.248 282.608 249.499 282.357 249.678C282.143 249.821 281.874 249.91 281.552 249.946C281.229 249.982 280.907 250 280.585 250H276.073C275.142 250 274.534 249.731 274.247 249.194C273.996 248.657 273.871 248.084 273.871 247.476V207.407C273.871 205.76 273.71 204.399 273.388 203.325C273.101 202.251 272.6 201.392 271.884 200.747C271.168 200.067 270.219 199.583 269.037 199.297C267.891 198.975 266.459 198.778 264.74 198.706V241.299C264.74 242.122 264.669 243.035 264.525 244.038C264.382 245.041 264.024 245.99 263.451 246.885C262.878 247.744 262.001 248.478 260.819 249.087C259.638 249.696 258.008 250 255.932 250H232.943C231.225 250 229.828 249.839 228.754 249.517C227.68 249.194 226.838 248.729 226.229 248.12C225.621 247.511 225.209 246.742 224.994 245.811C224.779 244.88 224.672 243.787 224.672 242.534V180.391ZM76.5371 327.035C75.7493 327.035 74.9079 327.16 74.0127 327.411C73.1533 327.662 72.2939 328.145 71.4346 328.861C70.5752 329.577 69.7337 330.58 68.9102 331.869C68.1224 333.122 67.4242 334.787 66.8154 336.864C66.2425 338.941 65.777 341.465 65.4189 344.438C65.0609 347.374 64.8818 350.883 64.8818 354.965C64.8818 359.011 65.0609 362.538 65.4189 365.546C65.777 368.554 66.2425 371.132 66.8154 373.28C67.4242 375.429 68.1224 377.201 68.9102 378.598C69.7337 379.958 70.5752 381.033 71.4346 381.82C72.2939 382.608 73.1533 383.163 74.0127 383.485C74.9079 383.772 75.7493 383.915 76.5371 383.915C77.6113 383.915 78.6139 383.682 79.5449 383.217V362.646C79.5449 362.073 79.6702 361.518 79.9209 360.98C80.1715 360.408 80.7624 360.121 81.6934 360.121H87.333C87.6553 360.121 87.9775 360.139 88.2998 360.175C88.6221 360.211 88.9085 360.318 89.1592 360.497C89.4098 360.64 89.6068 360.891 89.75 361.249C89.8932 361.571 89.9648 362.037 89.9648 362.646V393.476C89.9648 394.084 89.8932 394.568 89.75 394.926C89.6068 395.248 89.4098 395.499 89.1592 395.678C88.9085 395.821 88.6221 395.91 88.2998 395.946C87.9775 395.982 87.6553 396 87.333 396H81.6934C81.2279 396 80.8519 395.928 80.5654 395.785C80.3148 395.642 80.0999 395.445 79.9209 395.194C79.7777 394.944 79.6702 394.675 79.5986 394.389C79.5628 394.066 79.5449 393.762 79.5449 393.476V391.918C78.3991 392.742 77.1279 393.529 75.7314 394.281C74.335 395.033 72.7952 395.696 71.1123 396.269C69.4652 396.841 67.6748 397.289 65.7412 397.611C63.8076 397.934 61.7308 398.095 59.5107 398.095C56.8968 398.095 54.2113 397.862 51.4541 397.396C48.6969 396.931 46.0114 396.107 43.3975 394.926C40.8193 393.708 38.3665 392.061 36.0391 389.984C33.7116 387.908 31.6706 385.276 29.916 382.089C28.1973 378.902 26.8187 375.089 25.7803 370.648C24.7777 366.173 24.2764 360.945 24.2764 354.965C24.2764 349.88 24.7777 345.404 25.7803 341.537C26.8187 337.634 28.2152 334.25 29.9697 331.386C31.7243 328.521 33.7653 326.122 36.0928 324.188C38.4561 322.255 40.9626 320.715 43.6123 319.569C46.262 318.388 48.9834 317.564 51.7764 317.099C54.6051 316.597 57.3623 316.347 60.0479 316.347C62.984 316.347 65.777 316.579 68.4268 317.045C71.0765 317.51 73.4935 318.101 75.6777 318.817C77.8978 319.534 79.8672 320.339 81.5859 321.234C83.3047 322.13 84.7191 323.007 85.8291 323.866C85.9365 323.974 86.0618 324.099 86.2051 324.242C86.3483 324.35 86.4199 324.493 86.4199 324.672C86.4199 324.815 86.3662 324.994 86.2588 325.209L83.9492 328.861C83.7344 329.184 83.4837 329.345 83.1973 329.345C82.9824 329.345 82.6781 329.237 82.2842 329.022C81.9261 328.772 81.4606 328.503 80.8877 328.217C80.3148 327.895 79.6702 327.626 78.9541 327.411C78.238 327.16 77.4323 327.035 76.5371 327.035ZM98.7734 326.391C98.7734 325.137 98.8809 324.045 99.0957 323.114C99.3105 322.183 99.7223 321.413 100.331 320.805C100.94 320.16 101.781 319.677 102.855 319.354C103.93 319.032 105.326 318.871 107.045 318.871H131C133.077 318.871 134.652 319.175 135.727 319.784C136.837 320.393 137.606 321.163 138.036 322.094C138.502 322.989 138.752 323.956 138.788 324.994C138.824 325.997 138.842 326.928 138.842 327.787V387.299C138.842 388.122 138.77 389.035 138.627 390.038C138.484 391.041 138.126 391.99 137.553 392.885C136.98 393.744 136.103 394.478 134.921 395.087C133.739 395.696 132.11 396 130.033 396H107.045C105.326 396 103.93 395.839 102.855 395.517C101.781 395.194 100.94 394.729 100.331 394.12C99.7223 393.511 99.3105 392.742 99.0957 391.811C98.8809 390.88 98.7734 389.787 98.7734 388.534V326.391ZM148.832 326.391C148.832 325.137 148.939 324.045 149.154 323.114C149.369 322.183 149.781 321.413 150.39 320.805C150.998 320.16 151.84 319.677 152.914 319.354C153.988 319.032 155.385 318.871 157.104 318.871H182.938C185.624 318.871 188.292 319.068 190.941 319.462C193.591 319.82 196.116 320.482 198.515 321.449C200.914 322.416 203.134 323.759 205.175 325.478C207.252 327.16 209.042 329.345 210.546 332.03C212.05 334.716 213.231 337.938 214.091 341.698C214.95 345.458 215.38 349.88 215.38 354.965C215.38 360.945 214.914 366.119 213.983 370.487C213.088 374.82 211.853 378.508 210.277 381.552C208.738 384.595 206.894 387.066 204.745 388.964C202.632 390.826 200.341 392.294 197.87 393.368C195.435 394.407 192.893 395.105 190.243 395.463C187.629 395.821 185.015 396 182.401 396H157.104C155.385 396 153.988 395.839 152.914 395.517C151.84 395.194 150.998 394.729 150.39 394.12C149.781 393.511 149.369 392.742 149.154 391.811C148.939 390.88 148.832 389.787 148.832 388.534V326.391ZM207.807 356.093C207.807 351.653 207.449 347.606 206.732 343.954C206.016 340.302 204.888 337.187 203.349 334.608C201.809 332.03 199.84 330.025 197.44 328.593C195.077 327.16 192.23 326.426 188.9 326.391V388.534C192.23 388.498 195.095 387.639 197.494 385.956C199.893 384.237 201.845 381.91 203.349 378.974C204.888 376.037 206.016 372.618 206.732 368.715C207.449 364.776 207.807 360.569 207.807 356.093ZM263.773 345.834V389.394C267.247 388.892 270.434 388.445 273.334 388.051C274.551 387.872 275.769 387.711 276.986 387.567C278.24 387.388 279.385 387.227 280.424 387.084C281.462 386.941 282.357 386.833 283.109 386.762C283.861 386.69 284.381 386.654 284.667 386.654C285.276 386.654 285.795 386.78 286.225 387.03C286.654 387.245 286.869 387.711 286.869 388.427V393.368C286.869 394.013 286.708 394.621 286.386 395.194C286.063 395.731 285.294 396 284.076 396H231.869C230.186 396 228.808 395.839 227.733 395.517C226.695 395.194 225.871 394.729 225.263 394.12C224.654 393.511 224.242 392.742 224.027 391.811C223.812 390.88 223.705 389.787 223.705 388.534V328.217C223.705 326.176 223.938 324.547 224.403 323.329C224.869 322.076 225.531 321.127 226.391 320.482C227.25 319.802 228.271 319.372 229.452 319.193C230.67 318.979 232.012 318.871 233.48 318.871H282.035C283.253 318.871 284.022 319.158 284.345 319.73C284.703 320.268 284.882 320.876 284.882 321.557V325.37C284.882 326.086 284.685 326.57 284.291 326.82C283.933 327.035 283.45 327.143 282.841 327.143C282.483 327.143 281.928 327.107 281.176 327.035C280.46 326.964 279.618 326.874 278.651 326.767C277.685 326.623 276.646 326.48 275.536 326.337C274.426 326.194 273.316 326.033 272.206 325.854C269.628 325.46 266.817 325.012 263.773 324.511V338.153H283.754C284.506 338.153 284.882 338.529 284.882 339.281V344.652C284.882 345.44 284.506 345.834 283.754 345.834H263.773ZM294.066 326.391C294.066 325.137 294.174 324.045 294.389 323.114C294.604 322.183 295.015 321.413 295.624 320.805C296.233 320.16 297.074 319.677 298.148 319.354C299.223 319.032 300.619 318.871 302.338 318.871H326.293C328.37 318.871 329.945 319.175 331.02 319.784C332.13 320.393 332.899 321.163 333.329 322.094C333.795 322.989 334.045 323.956 334.081 324.994C334.117 325.997 334.135 326.928 334.135 327.787V388.642C336.605 388.284 338.897 387.961 341.01 387.675C341.905 387.567 342.8 387.46 343.695 387.353C344.626 387.209 345.468 387.084 346.22 386.977C347.007 386.869 347.706 386.798 348.314 386.762C348.923 386.69 349.371 386.654 349.657 386.654C350.266 386.654 350.749 386.78 351.107 387.03C351.501 387.245 351.698 387.711 351.698 388.427V393.368C351.698 394.013 351.412 394.621 350.839 395.194C350.302 395.731 349.424 396 348.207 396H302.23C300.548 396 299.169 395.839 298.095 395.517C297.056 395.194 296.233 394.729 295.624 394.12C295.015 393.511 294.604 392.742 294.389 391.811C294.174 390.88 294.066 389.787 294.066 388.534V326.391ZM357.768 326.391C357.768 325.137 357.875 324.045 358.09 323.114C358.305 322.183 358.716 321.413 359.325 320.805C359.934 320.16 360.775 319.677 361.85 319.354C362.924 319.032 364.32 318.871 366.039 318.871H389.994C392.071 318.871 393.646 319.175 394.721 319.784C395.831 320.393 396.601 321.163 397.03 322.094C397.496 322.989 397.746 323.956 397.782 324.994C397.818 325.997 397.836 326.928 397.836 327.787V387.299C397.836 388.122 397.764 389.035 397.621 390.038C397.478 391.041 397.12 391.99 396.547 392.885C395.974 393.744 395.097 394.478 393.915 395.087C392.733 395.696 391.104 396 389.027 396H366.039C364.32 396 362.924 395.839 361.85 395.517C360.775 395.194 359.934 394.729 359.325 394.12C358.716 393.511 358.305 392.742 358.09 391.811C357.875 390.88 357.768 389.787 357.768 388.534V326.391ZM454.018 362.001L441.396 385.258C440.858 386.26 440.214 387.102 439.462 387.782C438.71 388.427 437.672 388.749 436.347 388.749C435.129 388.749 434.109 388.409 433.285 387.729C432.497 387.048 431.835 386.243 431.298 385.312L417.978 362.431C418.192 367.265 418.389 371.723 418.568 375.805C418.64 377.559 418.712 379.314 418.783 381.068C418.855 382.823 418.926 384.452 418.998 385.956C419.07 387.46 419.123 388.803 419.159 389.984C419.231 391.13 419.285 391.972 419.32 392.509C419.356 393.046 419.338 393.529 419.267 393.959C419.231 394.389 419.105 394.765 418.891 395.087C418.676 395.373 418.371 395.606 417.978 395.785C417.584 395.928 417.047 396 416.366 396H410.458C409.813 396 409.205 395.803 408.632 395.409C408.095 394.979 407.826 394.156 407.826 392.938V324.618C407.826 323.938 407.916 323.257 408.095 322.577C408.31 321.897 408.65 321.288 409.115 320.751C409.617 320.178 410.261 319.73 411.049 319.408C411.837 319.05 412.803 318.871 413.949 318.871H431.244C432.641 318.871 433.84 319.122 434.843 319.623C435.845 320.089 436.705 320.876 437.421 321.986L451.869 344.921L461.537 326.391C462.11 325.281 462.665 324.278 463.202 323.383C463.739 322.452 464.366 321.664 465.082 321.02C465.834 320.339 466.747 319.82 467.821 319.462C468.931 319.068 470.346 318.871 472.064 318.871H486.352C487.712 318.871 488.876 319.05 489.843 319.408C490.845 319.766 491.651 320.25 492.26 320.858C492.904 321.467 493.37 322.183 493.656 323.007C493.943 323.83 494.086 324.726 494.086 325.692V388.534C494.086 389.644 493.996 390.665 493.817 391.596C493.638 392.491 493.262 393.279 492.689 393.959C492.152 394.604 491.365 395.105 490.326 395.463C489.324 395.821 487.999 396 486.352 396H461.537C460.069 396 458.852 395.839 457.885 395.517C456.918 395.194 456.148 394.729 455.575 394.12C455.002 393.511 454.59 392.742 454.34 391.811C454.125 390.88 454.018 389.787 454.018 388.534V362.001Z" fill="#1C879E"/>
</g>
<defs>
<clipPath id="clip0_36_88">
<rect width="512" height="512" fill="white"/>
</clipPath>
</defs>
</svg>
